<?xml version="1.0" standalone="no"?>
<!DOCTYPE svg PUBLIC "-//W3C//DTD SVG 20010904//EN"
 "http://www.w3.org/TR/2001/REC-SVG-20010904/DTD/svg10.dtd">
<svg version="1.0" xmlns="http://www.w3.org/2000/svg"
 width="512.000000pt" height="512.000000pt" viewBox="0 0 512.000000 512.000000"
 preserveAspectRatio="xMidYMid meet">
<metadata>
Created by potrace 1.11, written by Peter Selinger 2001-2013
</metadata>
<g transform="translate(0.000000,512.000000) scale(0.100000,-0.100000)"
fill="#000000" stroke="none">
<path d="M668 4354 c-52 -16 -109 -67 -141 -128 l-21 -41 0 -1630 0 -1630 22
-41 c27 -53 73 -99 120 -121 35 -17 139 -18 1917 -18 1789 0 1882 1 1916 18
51 25 99 74 123 127 l21 45 0 1625 -1 1625 -29 53 c-30 56 -83 100 -144 120
-25 9 -516 12 -1885 11 -1578 0 -1858 -2 -1898 -15z m2706 -168 c100 -42 126
-185 47 -260 -88 -84 -219 -57 -264 54 -54 132 83 262 217 206z m473 -13 c132
-85 78 -286 -81 -297 -56 -5 -126 37 -150 89 -71 149 94 297 231 208z m430 15
c85 -38 122 -142 80 -224 -56 -108 -208 -118 -276 -19 -52 76 -34 171 42 226
44 32 104 39 154 17z m100 -1839 l0 -1359 -1812 0 -1813 0 0 1359 0 1359 1813
0 1812 0 0 -1359z"/>
<path d="M2661 3098 c-23 -12 -52 -75 -65 -139 -2 -13 -36 -153 -75 -310 -38
-157 -72 -297 -75 -310 -2 -13 -25 -107 -49 -209 -71 -291 -72 -294 -58 -329
8 -17 24 -33 39 -38 24 -8 38 -9 85 -4 17 1 54 68 62 111 3 18 8 36 10 40 2 4
7 20 9 36 10 53 14 72 31 136 29 112 44 171 64 258 35 146 131 544 138 570 3
14 8 34 11 45 12 48 7 112 -11 129 -23 23 -85 30 -116 14z"/>
<path d="M2055 2849 c-88 -38 -169 -73 -180 -78 -11 -6 -58 -26 -105 -46 -114
-49 -136 -58 -200 -87 -30 -14 -97 -42 -147 -63 l-93 -39 -1 -48 c0 -26 0 -76
-1 -110 l0 -63 188 -81 c104 -45 212 -92 239 -104 158 -70 464 -200 469 -200
4 0 5 57 4 126 l-3 127 -308 120 c-184 72 -303 124 -295 128 7 4 63 26 123 48
61 23 119 46 130 50 11 5 58 24 105 41 47 18 121 47 165 65 l80 32 2 126 c1
70 -1 127 -5 126 -4 0 -79 -31 -167 -70z"/>
<path d="M2904 2788 l1 -123 185 -72 c102 -39 240 -93 307 -120 70 -27 118
-50 110 -54 -6 -4 -140 -57 -297 -119 -157 -61 -290 -116 -296 -121 -13 -11
-17 -249 -4 -249 14 0 885 381 890 390 7 11 4 195 -4 208 -3 5 -77 40 -163 77
-87 37 -176 76 -198 86 -22 10 -89 39 -150 64 -60 26 -123 53 -140 60 -91 42
-220 95 -231 95 -9 0 -11 -32 -10 -122z"/>
</g>
</svg>
